<?xml version="1.0" standalone="no"?>
<!DOCTYPE svg PUBLIC "-//W3C//DTD SVG 20010904//EN"
 "http://www.w3.org/TR/2001/REC-SVG-20010904/DTD/svg10.dtd">
<svg version="1.0" xmlns="http://www.w3.org/2000/svg"
 width="640.000000pt" height="421.000000pt" viewBox="0 0 640.000000 421.000000"
 preserveAspectRatio="xMidYMid meet">
<metadata>
Created by potrace 1.15, written by Peter Selinger 2001-2017
</metadata>
<g transform="translate(0.000000,421.000000) scale(0.100000,-0.100000)"
fill="#000000" stroke="none">
<path d="M3640 4185 c-62 -25 -244 -43 -255 -25 -10 17 -75 12 -75 -5 0 -23
79 -104 125 -127 36 -19 100 -26 113 -13 3 3 -12 4 -34 3 -48 -1 -108 28 -149
74 l-30 33 35 -31 c53 -48 93 -64 157 -64 34 0 53 -4 45 -9 -10 -6 -9 -11 4
-22 12 -9 15 -10 10 -1 -11 18 -1 15 15 -5 12 -14 12 -16 0 -9 -9 6 -12 5 -9
-5 3 -8 11 -13 17 -11 7 1 10 -2 7 -7 -3 -5 -1 -20 4 -33 l11 -23 -5 24 c-4
18 -2 21 7 12 7 -7 11 -33 10 -59 -2 -49 20 -169 38 -206 10 -20 9 -20 -5 -3
-20 26 -49 161 -42 200 6 30 5 30 -5 7 -12 -28 2 -127 27 -189 14 -33 82 -116
95 -116 4 0 11 -4 16 -9 4 -5 3 -6 -4 -2 -8 5 -10 -3 -7 -26 3 -18 1 -53 -3
-78 -8 -43 -10 -45 -63 -61 -30 -9 -50 -17 -44 -18 6 -1 33 6 59 14 27 8 51
13 53 10 2 -2 -29 -13 -70 -25 -40 -12 -95 -28 -123 -37 -59 -19 -181 -78
-190 -93 -3 -5 -11 -10 -17 -10 -37 0 125 87 214 116 32 9 56 19 54 22 -7 7
-106 -28 -171 -61 -63 -31 -125 -74 -125 -87 0 -14 106 -30 155 -24 45 7 49 6
37 -9 -23 -28 -93 -45 -206 -52 -102 -5 -113 -4 -177 21 -40 16 -80 40 -96 58
l-28 31 30 -27 c30 -26 84 -53 92 -44 2 2 -12 9 -32 16 -20 6 -45 25 -57 41
-12 15 -25 26 -29 23 -4 -2 -11 1 -15 7 -4 8 -3 9 4 5 19 -11 14 8 -11 45 -26
39 -43 40 -40 1 l2 -27 -15 25 -15 25 7 -25 c12 -44 54 -121 64 -115 5 3 12 0
16 -6 5 -8 3 -9 -5 -5 -22 14 -8 -28 16 -46 32 -27 40 -21 12 10 l-24 27 27
-24 c15 -13 25 -29 21 -34 -4 -6 0 -8 10 -4 9 3 19 2 22 -3 4 -6 21 -10 38
-11 18 0 41 -4 52 -9 19 -8 19 -9 -2 -9 -54 -2 -126 22 -171 59 -60 47 -93 64
-156 79 -62 15 -176 23 -176 12 0 -10 76 -81 87 -81 3 0 -9 15 -28 33 -20 17
-26 25 -15 16 31 -25 77 -46 116 -53 55 -11 90 -27 83 -38 -3 -6 0 -8 8 -6 8
3 29 -9 47 -26 23 -22 52 -36 100 -47 l67 -16 -157 5 c-130 4 -168 2 -227 -14
-39 -10 -71 -21 -71 -26 0 -4 68 -8 150 -8 120 0 162 -4 208 -19 61 -20 177
-36 153 -22 -9 6 3 10 35 13 27 3 51 3 52 2 2 -1 -27 -13 -65 -25 -59 -19 -88
-22 -223 -20 -175 1 -290 -7 -290 -20 0 -5 30 -9 68 -9 37 0 122 -5 189 -12
108 -11 128 -10 175 5 29 9 70 16 90 15 l38 -1 -38 -27 c-111 -82 -274 -89
-496 -20 -138 42 -171 40 -340 -23 -62 -23 -25 -28 79 -11 l96 16 78 -41 c83
-43 271 -101 328 -101 18 0 33 -5 33 -11 0 -6 7 -9 15 -5 8 3 15 3 15 0 0 -3
-29 -19 -65 -35 -70 -33 -127 -38 -224 -19 -67 13 -236 13 -358 0 -90 -9 -229
-47 -218 -59 4 -3 36 -4 73 -3 62 3 73 0 143 -37 125 -66 208 -89 350 -97 68
-4 133 -11 144 -15 14 -6 10 -7 -15 -4 -19 2 -84 7 -144 10 -61 4 -136 15
-170 25 -33 11 -62 17 -64 15 -13 -12 141 -45 240 -50 147 -8 155 -10 162 -40
4 -14 10 -23 15 -21 5 3 8 -2 7 -12 0 -10 5 -16 14 -14 8 2 11 0 7 -5 -5 -4
-14 -8 -19 -8 -6 0 -13 -6 -16 -14 -3 -9 0 -11 8 -6 9 5 11 4 6 -4 -4 -6 -11
-9 -15 -6 -5 2 -19 -7 -32 -22 -13 -14 -44 -38 -69 -54 -25 -16 -41 -29 -37
-29 10 0 51 26 102 64 22 17 34 23 27 14 -26 -33 -118 -85 -222 -128 -146 -59
-215 -97 -276 -152 l-52 -48 -72 0 c-40 0 -129 11 -198 25 -68 14 -127 23
-130 20 -7 -7 -6 -7 53 -29 278 -102 287 -104 375 -62 31 14 100 33 155 42 55
8 124 25 153 36 28 11 63 18 77 16 14 -3 25 -1 25 3 0 5 10 9 23 9 21 -1 21
-1 2 -12 -11 -6 -36 -25 -55 -42 -27 -24 -30 -25 -15 -6 l20 25 -28 -25 c-25
-22 -66 -124 -54 -136 2 -3 10 16 16 42 15 57 23 54 10 -3 -6 -27 -5 -51 1
-68 7 -17 7 -24 0 -20 -6 3 -10 14 -11 23 0 10 -3 12 -5 5 -7 -15 14 -55 25
-49 4 3 21 -8 37 -25 16 -17 63 -51 104 -76 41 -25 86 -54 99 -64 l24 -19 -33
0 c-18 0 -100 17 -184 37 -150 37 -153 37 -336 35 -235 -3 -288 -16 -430 -103
-34 -20 -34 -20 -10 0 42 35 134 80 196 96 39 10 120 15 244 17 178 3 190 2
310 -29 152 -38 215 -49 207 -36 -4 5 -21 10 -39 11 -18 1 -89 15 -158 31
-171 41 -201 43 -390 33 -180 -11 -233 -24 -325 -84 -28 -17 -66 -40 -85 -50
-27 -14 -29 -17 -10 -13 23 5 22 4 -5 -11 -57 -33 -185 -31 -381 7 -96 18
-172 35 -169 37 2 2 34 -1 71 -7 36 -7 68 -10 71 -8 2 3 -27 10 -66 17 -54 9
-74 9 -92 -1 -21 -11 -13 -15 81 -45 56 -19 145 -53 197 -75 86 -38 98 -41
146 -34 29 4 104 8 167 9 63 0 120 4 127 8 6 5 46 15 89 23 42 8 86 17 98 20
12 3 5 -2 -14 -11 -19 -9 -57 -18 -84 -21 -27 -2 -65 -11 -85 -19 -24 -10 -87
-17 -196 -20 l-160 -5 -69 31 c-37 17 -70 29 -72 27 -2 -2 30 -18 71 -36 l74
-33 158 5 c114 4 169 10 197 22 21 9 45 14 53 11 8 -3 23 -1 34 4 10 6 19 9
19 6 0 -2 -24 -18 -54 -35 l-54 -31 -147 5 c-99 4 -145 2 -140 -5 3 -5 11 -10
18 -10 18 0 179 -71 212 -93 62 -42 136 -110 128 -118 -4 -4 -120 -53 -257
-109 l-248 -101 -47 15 c-77 24 -92 25 -142 14 -42 -10 -49 -15 -63 -50 -14
-37 -14 -39 2 -34 13 5 13 3 -2 -9 -11 -8 -27 -15 -35 -14 -11 0 -10 3 4 9
l20 8 -20 6 c-11 4 -46 20 -78 37 -91 48 -175 50 -296 10 -52 -18 -171 -47
-265 -66 -147 -29 -182 -39 -260 -80 -50 -26 -151 -78 -225 -115 -73 -38 -150
-83 -170 -102 l-36 -33 35 38 c22 24 81 61 170 106 74 38 176 90 225 115 75
39 117 53 250 81 88 18 152 34 143 34 -10 1 -82 -12 -160 -29 -116 -24 -160
-38 -233 -76 -49 -25 -151 -77 -225 -115 -145 -74 -226 -140 -236 -193 -3 -21
-1 -27 8 -23 7 3 40 17 73 31 33 15 51 20 41 11 -11 -8 -23 -15 -28 -15 -4 0
-8 -5 -8 -11 0 -5 4 -8 8 -5 4 2 14 1 22 -4 11 -7 3 -14 -33 -30 -26 -12 -47
-23 -47 -26 0 -3 5 -2 10 1 6 3 10 1 10 -5 0 -8 19 -10 67 -4 63 6 67 6 54
-10 -8 -9 -33 -30 -55 -47 l-41 -31 35 31 c19 17 32 31 28 31 -13 0 -117 -87
-111 -94 3 -3 0 -6 -7 -6 -10 0 -11 -3 -3 -11 7 -7 26 -3 63 16 34 17 56 23
62 17 6 -6 5 -12 -3 -17 -8 -5 -10 -4 -5 3 4 7 5 12 1 12 -10 0 -105 -50 -105
-55 0 -3 18 4 39 15 39 19 69 11 34 -9 -10 -6 -14 -11 -10 -11 5 0 29 12 53
26 25 15 47 24 50 22 7 -7 -91 -58 -112 -58 -15 0 -16 -2 -5 -9 7 -5 43 -7 80
-5 l66 3 -63 -8 c-79 -10 -90 -19 -17 -15 33 2 55 -1 55 -7 0 -6 10 -8 23 -4
12 3 -5 -10 -38 -30 -33 -19 -77 -38 -97 -41 -24 -4 -38 -12 -38 -22 0 -12 9
-14 45 -9 25 4 45 3 45 -1 0 -4 -17 -9 -37 -10 -21 -2 -39 -5 -42 -8 -3 -2 90
-3 206 -1 l210 4 109 51 c104 48 115 51 231 61 150 12 194 30 279 112 39 37
86 70 126 88 35 15 74 33 88 40 l25 11 -25 -6 c-65 -15 -155 -67 -214 -123
-85 -82 -129 -100 -279 -112 -115 -10 -128 -13 -227 -59 -58 -27 -125 -52
-150 -55 -45 -5 -45 -5 10 10 30 9 98 36 150 60 88 40 104 44 217 54 150 12
194 30 279 112 59 56 92 75 232 134 24 10 54 32 68 48 13 15 24 24 24 19 0 -6
-19 -27 -42 -46 -23 -20 -39 -36 -35 -36 4 0 25 16 46 36 48 43 68 114 52 179
l-10 40 4 -45 c2 -25 1 -61 -4 -80 -6 -27 -7 -18 -7 42 1 95 13 112 56 80 41
-31 48 -28 10 4 -27 23 -34 25 -58 15 -25 -11 -26 -10 -8 4 26 20 39 19 61 -5
24 -26 65 -25 101 2 23 18 26 18 14 4 -8 -11 -28 -25 -45 -32 -18 -8 -23 -13
-13 -14 24 0 90 60 84 76 -3 8 0 13 6 11 5 -1 17 17 26 40 l16 43 265 106
c257 102 265 105 280 86 24 -29 91 -76 98 -68 3 3 2 6 -4 6 -6 0 -34 20 -61
45 l-51 46 -266 -107 c-146 -58 -268 -105 -270 -103 -2 2 119 53 269 112 l272
109 39 -39 c22 -21 54 -48 70 -61 17 -13 25 -21 19 -18 -7 3 -14 -2 -17 -12
-2 -9 -8 -26 -13 -36 -6 -15 -4 -17 7 -11 8 4 -2 -8 -20 -28 -19 -21 -37 -37
-40 -37 -3 0 8 14 25 32 l29 32 -35 -29 c-19 -15 -35 -33 -35 -39 0 -6 -19
-14 -42 -17 -51 -6 -64 -16 -32 -23 81 -18 246 -37 273 -32 18 4 64 22 102 41
38 20 101 45 139 56 99 30 141 53 209 118 33 31 56 50 51 42 -6 -10 -2 -11 16
-5 13 4 34 8 46 9 13 1 26 5 30 10 5 4 -12 5 -37 2 -30 -4 -38 -3 -25 3 24 10
75 13 75 3 0 -15 -53 -61 -65 -57 -6 3 -18 -3 -26 -13 -13 -17 -13 -17 6 -3
20 15 20 14 1 -8 -20 -23 -32 -30 -21 -12 11 17 -11 11 -28 -8 -19 -21 -22
-37 -5 -26 7 4 8 3 4 -5 -4 -6 -12 -9 -17 -5 -14 8 -39 -59 -39 -106 0 -22 -9
-59 -21 -82 -15 -29 -18 -43 -10 -51 18 -18 13 -49 -11 -75 -13 -14 -17 -22
-10 -18 6 4 12 5 12 2 0 -3 -10 -10 -21 -17 -17 -9 -20 -8 -13 3 6 10 4 10
-10 -1 -16 -14 -16 -16 9 -28 35 -19 78 -8 121 29 33 29 47 57 22 42 -8 -4
-10 -3 -5 2 5 5 14 9 19 9 6 0 13 6 16 14 3 9 0 11 -9 6 -8 -5 -11 -4 -6 1 5
5 14 9 19 9 6 0 13 6 16 14 3 9 0 11 -8 6 -9 -5 -11 -4 -6 4 4 6 11 9 16 6 13
-8 50 59 50 92 0 17 8 38 19 47 28 26 109 47 169 45 50 -2 51 -3 35 -21 -18
-20 -28 -24 -17 -7 4 7 1 10 -7 7 -8 -3 -13 -11 -11 -17 1 -7 -2 -10 -7 -6
-15 9 -31 -29 -31 -75 0 -29 4 -39 12 -34 7 4 8 3 4 -5 -4 -6 -11 -9 -16 -6
-4 3 -10 -2 -13 -10 -4 -9 9 -26 35 -46 33 -27 43 -30 57 -21 31 23 42 24 59
9 9 -9 20 -15 24 -14 3 1 10 -2 15 -7 5 -5 2 -6 -6 -1 -9 5 -12 3 -9 -6 3 -8
10 -14 16 -14 5 0 14 -4 19 -9 5 -5 2 -6 -6 -1 -9 5 -12 3 -9 -6 3 -8 10 -14
16 -14 5 0 14 -4 19 -9 5 -5 3 -6 -4 -2 -29 16 -10 -14 33 -53 62 -58 104 -74
168 -65 69 9 116 54 116 111 0 38 -22 73 -45 73 -5 0 0 -6 10 -14 18 -13 17
-14 -8 -11 -18 2 -27 -1 -27 -11 0 -10 5 -12 13 -8 8 5 8 2 -2 -9 -17 -22 -55
-22 -72 0 -12 14 -12 16 0 9 9 -6 12 -4 9 5 -3 8 -10 14 -16 14 -5 0 -14 4
-19 9 -5 5 -3 6 5 2 16 -9 16 -11 -13 59 -13 33 -30 59 -36 57 -6 -1 -8 2 -4
8 8 13 -13 52 -25 45 -5 -3 -12 0 -16 6 -4 7 -3 9 4 6 7 -5 8 6 5 31 -3 23 1
53 11 76 19 46 20 49 4 40 -8 -5 -8 -1 1 10 8 10 42 31 75 48 34 17 72 40 86
52 l25 21 -20 -24 c-11 -13 -50 -39 -87 -57 -38 -19 -68 -37 -68 -39 0 -11
126 58 153 84 16 14 38 43 48 64 13 25 26 37 37 35 29 -5 25 -43 -7 -81 -33
-37 -39 -74 -20 -124 6 -15 14 -45 17 -66 4 -21 10 -39 14 -38 4 0 27 -9 50
-19 56 -25 64 -25 90 5 29 33 46 32 99 -9 32 -25 61 -37 110 -45 99 -17 124
-14 159 16 41 34 54 67 40 107 -11 35 -50 48 -50 18 0 -15 -2 -15 -10 -2 -8
13 -10 12 -10 -2 0 -22 -10 -22 -55 -4 -19 8 -35 13 -35 10 0 -12 73 -34 93
-29 20 5 20 5 4 -5 -24 -16 -77 3 -108 37 -13 15 -16 21 -6 14 9 -7 17 -9 17
-4 0 11 -105 113 -115 113 -4 0 13 -19 37 -42 24 -24 30 -31 14 -17 -36 31
-70 49 -111 61 -27 7 -25 7 10 4 37 -3 38 -3 13 7 -27 10 -28 14 -30 81 l-2
71 -5 -75 -6 -75 -7 100 c-4 55 -3 106 2 115 8 13 9 13 10 0 1 -8 7 3 15 25
18 49 18 48 3 39 -8 -4 -10 -3 -5 2 5 5 14 9 19 9 6 0 13 6 16 14 3 9 0 11 -9
5 -12 -7 -12 -5 0 9 16 20 25 23 15 5 -4 -7 2 -4 14 6 26 23 30 45 5 25 -16
-13 -17 -12 -4 4 8 9 16 15 19 12 7 -7 32 15 32 27 0 6 -8 4 -17 -3 -16 -13
-17 -12 -4 3 7 10 17 15 22 13 11 -8 31 33 23 47 -4 6 -3 8 4 4 6 -4 19 11 30
37 12 26 40 61 72 88 98 81 172 154 188 184 8 17 18 56 21 89 l6 58 163 65
163 66 39 -18 c46 -21 70 -14 147 41 36 26 43 34 28 35 -12 1 -5 6 17 13 38
11 60 26 40 26 -7 0 -12 5 -12 12 0 6 9 3 21 -8 25 -23 119 -25 147 -3 15 13
16 12 4 -3 -8 -9 -23 -19 -35 -21 -22 -4 -22 -4 1 -6 31 -2 127 91 118 115 -9
24 12 34 43 22 53 -20 147 -12 214 20 59 28 127 76 127 91 0 15 -52 9 -119
-14 -39 -13 -92 -27 -118 -30 -32 -5 92 50 372 163 231 93 469 191 528 217
l108 47 -3 40 c-3 55 -29 67 -92 43 -26 -10 -45 -20 -42 -22 2 -2 22 4 45 13
33 13 47 14 64 5 22 -11 22 -11 1 -6 -25 6 -122 -29 -462 -168 -187 -77 -240
-94 -267 -90 -19 3 -36 12 -40 21 -4 11 -2 12 7 5 24 -19 72 -22 98 -7 16 10
18 13 5 9 -23 -8 -30 -9 -66 -7 -24 2 -29 10 -55 88 -25 77 -26 90 -16 130 7
24 12 61 12 82 0 48 -55 166 -72 156 -9 -6 -9 -3 1 9 7 9 17 14 22 12 12 -8
41 53 36 73 -4 13 -5 12 -6 -4 0 -11 -8 -29 -17 -40 -15 -18 -15 -18 -5 3 20
40 13 49 -60 74 -39 13 -64 25 -56 27 8 2 32 -4 53 -13 20 -8 39 -13 41 -11 3
3 -18 12 -45 22 -29 10 -57 29 -67 43 -12 19 -15 20 -10 6 5 -15 3 -17 -5 -9
-6 6 -12 19 -14 28 -2 18 -21 23 -21 6 0 -5 -4 -10 -10 -11 -12 0 -34 -38 -35
-60 0 -9 -7 -22 -15 -29 -18 -15 -20 -35 -3 -24 7 4 8 3 4 -5 -4 -6 -11 -9
-16 -6 -5 3 -12 0 -17 -7 -11 -18 -10 -167 1 -161 5 4 6 1 2 -6 -5 -7 -10 -10
-13 -7 -9 9 -103 -74 -119 -106 -9 -16 -22 -59 -29 -95 -16 -76 -5 -134 45
-233 31 -62 40 -134 18 -144 -7 -3 -2 -4 12 -1 21 4 20 3 -7 -11 -30 -16 -34
-16 -83 5 -46 20 -55 21 -111 9 -58 -12 -63 -11 -157 21 -53 19 -104 41 -112
49 -8 8 -10 12 -3 8 8 -4 10 6 6 36 -6 47 -29 92 -42 83 -5 -2 -15 3 -22 12
-10 12 -10 14 -1 9 18 -11 15 9 -5 25 -11 10 -14 10 -9 2 11 -19 1 -16 -15 4
-10 11 -10 14 -1 9 21 -12 13 10 -10 30 -22 19 -23 19 -8 -1 15 -20 14 -20 -8
-1 -23 20 -30 32 -12 21 6 -3 10 -2 10 3 0 19 -87 89 -175 142 -49 29 -110 67
-135 83 -25 16 -38 23 -30 14 8 -9 71 -50 140 -92 69 -42 136 -88 150 -103
l25 -26 -25 21 c-14 12 -81 56 -150 98 -135 83 -160 102 -157 117 1 6 -4 13
-12 16 -9 3 -11 0 -6 -9 5 -8 -1 -5 -13 5 -23 20 -30 32 -12 21 6 -3 10 3 10
14 0 11 5 23 10 26 6 4 7 12 4 18 -4 7 5 1 19 -12 28 -25 35 -37 16 -25 -7 4
-10 2 -8 -5 3 -7 8 -12 13 -11 4 1 20 -10 35 -24 26 -25 58 -27 87 -5 6 5 14
6 17 3 10 -10 -9 49 -27 84 -9 17 -21 54 -27 82 -7 34 -15 48 -22 43 -7 -4 -6
1 2 10 18 23 25 22 58 -9 15 -14 22 -23 16 -19 -16 8 -17 -14 -2 -35 9 -12 10
-11 5 5 -6 18 -5 19 7 3 12 -16 16 -16 38 -2 20 13 19 11 -4 -10 -15 -14 -24
-26 -19 -26 15 0 60 54 66 80 6 30 -16 96 -31 93 -6 -1 -17 5 -25 15 -12 15
-11 16 5 3 36 -29 15 7 -30 49 -37 35 -41 37 -18 10 l30 -35 -38 34 c-36 34
-47 49 -28 36 5 -3 11 7 13 22 2 17 12 32 28 40 22 11 23 13 4 13 -11 0 -26
-6 -34 -12 -12 -11 -12 -10 -1 5 10 12 28 17 66 17 44 0 67 8 136 45 46 25 95
53 109 62 l25 15 -25 -21 c-14 -12 -55 -37 -92 -57 -38 -19 -68 -37 -68 -39 0
-3 31 10 69 29 91 46 141 94 140 132 -2 27 -2 27 -6 4 -10 -56 -18 -34 -18 50
0 48 2 87 4 85 1 -2 7 -28 11 -57 7 -49 8 -50 9 -13 1 68 -59 165 -103 165 -6
0 3 -9 20 -19 18 -11 35 -25 40 -33 4 -7 -5 -3 -20 10 -34 26 -51 28 -42 6 5
-14 4 -15 -9 -4 -14 11 -14 10 -5 -14 15 -41 12 -54 -12 -59 -19 -4 -18 -5 6
-6 26 -1 28 1 24 28 -2 17 -1 28 4 25 5 -3 8 -20 6 -38 -2 -29 -4 -31 -34 -28
-27 3 -38 -2 -64 -32 -32 -35 -34 -36 -114 -38 l-81 -2 77 -3 c44 -2 88 1 100
7 21 10 21 10 6 -3 -20 -16 -266 -33 -279 -20 -5 5 15 7 44 7 30 -1 37 0 17 2
-19 3 -42 8 -50 11 -8 3 -18 7 -22 7 -4 1 -13 8 -20 16 -11 12 -11 12 5 1 40
-31 12 9 -48 69 -60 60 -65 68 -65 108 0 46 -15 86 -30 77 -5 -3 -12 0 -16 6
-5 8 -3 9 6 4 8 -5 11 -3 8 6 -3 8 -10 14 -15 14 -6 0 -15 4 -20 9 -5 5 -3 6
5 2 6 -4 12 -3 12 1 0 10 -83 93 -92 93 -4 0 10 -17 30 -37 21 -21 24 -26 7
-11 -16 14 -49 32 -72 39 -24 6 -51 21 -60 32 -10 11 -12 17 -5 13 9 -5 12 6
12 44 0 53 -15 95 -30 85 -5 -3 -12 0 -16 6 -4 8 -3 9 4 5 16 -9 15 7 0 22
-16 16 -31 15 -22 0 6 -10 4 -10 -7 0 -20 19 -108 13 -169 -13z m855 -1955 c0
-8 80 -70 91 -70 3 0 2 6 -2 13 -5 6 9 -3 29 -20 22 -20 49 -33 64 -33 18 0
24 -3 17 -10 -12 -12 -349 -150 -366 -150 -7 1 1 8 17 16 17 8 21 12 11 9 -14
-4 -33 7 -65 39 -62 61 -113 78 -233 76 l-98 -1 0 26 c0 18 -4 24 -12 19 -7
-4 -5 2 5 13 21 24 89 44 144 42 32 -2 33 -3 8 -5 -58 -7 -135 -25 -140 -34
-3 -4 16 -2 42 6 27 8 64 14 84 12 35 -2 37 -3 28 -26 -13 -33 -7 -37 54 -34
41 1 79 15 182 66 123 60 140 66 140 46z m-1692 -1147 c3 -5 -5 -9 -16 -10
-36 -2 -190 -71 -222 -99 l-30 -26 33 22 c47 32 187 89 211 87 20 -1 19 -12
-1 -12 -6 0 -13 -6 -16 -14 -3 -9 0 -11 9 -6 8 4 -1 -8 -20 -28 -19 -20 -38
-34 -42 -31 -5 3 -21 -2 -36 -9 -15 -8 -54 -20 -86 -27 -31 -7 -55 -15 -53
-18 7 -6 105 18 141 35 28 13 28 13 10 -2 -11 -8 -38 -20 -60 -25 -22 -6 -66
-19 -97 -28 -54 -17 -56 -17 -47 -1 5 10 14 21 21 25 7 4 8 3 4 -4 -4 -7 -1
-12 9 -12 9 0 14 4 10 9 -3 5 -1 12 5 16 5 3 10 11 10 17 0 6 -7 5 -17 -3 -13
-10 -13 -8 2 10 33 38 73 63 169 103 99 41 103 42 109 31z"/>
<path d="M2490 2872 c-30 -10 -68 -26 -85 -36 -16 -9 -21 -14 -10 -10 178 65
202 66 337 25 120 -37 238 -55 308 -47 71 8 149 32 180 56 l25 20 -26 0 c-14
0 -47 -7 -74 -16 -37 -13 -65 -15 -129 -10 -44 4 -142 12 -216 17 -74 5 -162
12 -195 14 -41 3 -77 -1 -115 -13z"/>
</g>
</svg>
